<?xml version="1.0" standalone="no"?>
<!DOCTYPE svg PUBLIC "-//W3C//DTD SVG 20010904//EN"
 "http://www.w3.org/TR/2001/REC-SVG-20010904/DTD/svg10.dtd">
<svg version="1.0" xmlns="http://www.w3.org/2000/svg"
 width="700.000000pt" height="700.000000pt" viewBox="0 0 700.000000 700.000000"
 preserveAspectRatio="xMidYMid meet">
<metadata>
Created by potrace 1.14, written by Peter Selinger 2001-2017
</metadata>
<g transform="translate(0.000000,700.000000) scale(0.100000,-0.100000)"
fill="#000000" stroke="none">
<path d="M3730 6653 c519 -79 968 -409 1196 -878 139 -288 189 -640 134 -960
-110 -646 -616 -1161 -1263 -1286 -59 -11 -183 -24 -299 -29 -301 -15 -497
-62 -718 -176 -155 -79 -267 -161 -400 -294 -217 -216 -354 -464 -428 -775
-25 -102 -27 -127 -27 -340 0 -213 2 -238 27 -340 46 -196 115 -360 216 -515
154 -239 356 -422 602 -549 267 -137 514 -190 840 -178 969 35 1850 497 2432
1274 839 1122 836 2672 -8 3796 -517 688 -1281 1132 -2137 1242 -101 13 -243
20 -167 8z m-127 -4258 c378 -80 517 -550 245 -825 -308 -310 -838 -92 -838
345 1 89 13 144 53 224 60 122 195 227 330 256 81 18 128 18 210 0z"/>
<path d="M3405 5568 c-83 -15 -187 -72 -252 -136 -94 -95 -143 -213 -143 -347
1 -137 47 -251 142 -346 310 -309 838 -91 838 346 0 233 -161 432 -387 480
-76 16 -125 17 -198 3z"/>
</g>
</svg>
