<?xml version="1.0" standalone="no"?>
<!DOCTYPE svg PUBLIC "-//W3C//DTD SVG 20010904//EN"
 "http://www.w3.org/TR/2001/REC-SVG-20010904/DTD/svg10.dtd">
<svg version="1.0" xmlns="http://www.w3.org/2000/svg"
 width="576.000000pt" height="576.000000pt" viewBox="0 0 576.000000 576.000000"
 preserveAspectRatio="xMidYMid meet">
<metadata>
Created by potrace 1.14, written by Peter Selinger 2001-2017
</metadata>
<g transform="translate(0.000000,576.000000) scale(0.100000,-0.100000)"
fill="#000000" stroke="none">
<path d="M2628 5489 c-636 -71 -1165 -322 -1598 -760 -190 -191 -270 -292
-395 -499 -74 -120 -205 -390 -205 -420 0 -6 -5 -18 -10 -28 -20 -34 -81 -248
-105 -366 -46 -230 -50 -285 -49 -571 1 -220 10 -311 49 -505 3 -14 7 -34 9
-45 9 -47 29 -117 63 -220 129 -400 333 -734 633 -1036 199 -201 402 -353 641
-478 158 -83 439 -194 546 -216 10 -2 41 -9 68 -15 208 -48 321 -62 555 -65
261 -4 360 5 585 50 678 136 1296 565 1680 1165 50 78 175 318 212 405 65 158
123 366 159 570 22 125 27 188 29 375 4 244 -8 386 -49 585 -64 312 -198 633
-371 893 -112 168 -172 245 -293 373 -96 102 -267 255 -347 309 -215 147 -363
232 -531 303 -137 59 -354 126 -489 153 -11 2 -31 6 -45 9 -24 5 -47 8 -122
20 -143 23 -475 30 -620 14z m-13 -220 c-38 -11 -79 -22 -90 -24 -41 -10 -191
-88 -253 -132 -232 -165 -393 -444 -451 -778 -15 -85 -18 -147 -16 -270 3
-164 5 -183 31 -295 9 -36 18 -76 20 -90 9 -47 74 -198 120 -280 124 -220 326
-391 550 -464 122 -40 175 -47 434 -61 244 -12 477 -113 645 -279 55 -54 145
-168 145 -183 0 -7 4 -13 9 -13 5 0 14 -12 20 -27 7 -16 28 -59 47 -98 52
-102 102 -269 121 -405 10 -71 10 -319 1 -390 -39 -293 -157 -548 -336 -726
-163 -162 -354 -255 -585 -284 -75 -9 -323 -6 -407 5 -19 2 -57 7 -84 11 -27
3 -58 8 -70 10 -12 2 -37 7 -56 10 -19 3 -48 9 -65 14 -16 5 -75 21 -130 36
-194 54 -404 145 -585 254 -58 35 -107 66 -110 69 -3 4 -31 24 -62 45 -32 21
-65 46 -75 55 -10 9 -45 38 -77 65 -160 135 -373 378 -461 527 -108 182 -144
254 -225 444 -33 76 -92 289 -119 425 -25 123 -35 251 -36 430 0 145 10 334
19 348 2 4 7 30 10 57 17 129 87 376 153 534 84 206 231 447 373 616 126 150
308 321 430 405 19 13 37 27 40 30 14 17 189 121 285 170 182 94 354 157 555
204 107 25 138 31 225 42 28 4 51 7 52 8 1 1 19 2 40 3 31 1 25 -2 -32 -18z
m408 -693 c131 -44 239 -147 288 -274 42 -109 33 -265 -21 -373 -46 -90 -149
-182 -248 -220 -78 -31 -222 -35 -298 -9 -338 117 -433 524 -180 773 48 47
146 101 211 116 68 16 180 10 248 -13z"/>
<path d="M2761 2064 c-243 -66 -389 -317 -326 -559 42 -158 162 -281 323 -328
65 -20 197 -16 269 7 64 20 146 75 195 130 226 251 109 654 -217 749 -67 19
-178 20 -244 1z"/>
</g>
</svg>
